<svg width="272" height="201" viewBox="0 0 272 201" fill="none" xmlns="http://www.w3.org/2000/svg">
<path fill-rule="evenodd" clip-rule="evenodd" d="M249.051 169.232C263.735 152.477 271.828 131.038 271.847 108.848C271.841 100.185 270.604 91.5667 268.183 83.2436C253.091 30.7168 194.999 2.74246 143.723 23.2834C134.97 26.7909 127.143 31.7894 119.568 37.3028C110.414 44.0496 99.9774 46.0555 88.7642 44.0496C80.1082 42.5051 72.391 38.8688 64.9586 34.5783C61.1712 32.4057 58.2967 28.9567 56.8595 24.8602C56.5358 23.9765 56.3156 23.0408 56.0955 22.1012C55.9401 21.4441 55.7848 20.7851 55.597 20.1406C53.713 13.8411 49.6666 8.39334 44.1571 4.74242C38.6476 1.09156 32.0181 -0.53193 25.4274 0.153568C18.8367 0.839066 12.6927 3.79031 8.06367 8.4953C3.44112 13.2002 0.618358 19.362 0.100425 25.9114C-1.60228 46.1199 18.6489 61.5121 37.9031 54.5506C40.551 53.5438 43.3867 53.127 46.2224 53.329C49.0516 53.531 51.7967 54.3472 54.2763 55.7197C59.7275 58.5078 64.881 61.8278 69.6654 65.631C81.4613 75.2208 87.2621 87.2553 85.896 102.573C85.0285 113.393 86.2328 124.279 89.4504 134.655C95.7368 155.953 109.559 174.291 128.38 186.306C147.2 198.322 169.762 203.21 191.93 200.074C214.091 196.938 234.375 185.988 249.051 169.232ZM139.373 83.4034C134.219 91.0495 131.461 100.041 131.461 109.239C131.474 121.558 136.42 133.368 145.199 142.085C153.985 150.801 165.891 155.715 178.321 155.749C187.599 155.759 196.675 153.041 204.399 147.939C212.123 142.836 218.144 135.579 221.705 127.084C225.259 118.589 226.198 109.238 224.398 100.215C222.592 91.192 218.131 82.9016 211.573 76.3931C205.014 69.884 196.656 65.4494 187.553 63.6495C178.451 61.8502 169.018 62.7659 160.44 66.2823C151.868 69.7986 144.533 75.7566 139.373 83.4034Z" fill="#121225"/>
</svg>
